# xmcd CD database file
#
# Track frame offsets:
#	150
#	21527
#	63200
#	97778
#	150907
#	164245
#	183299
#	224146
#	238312
#	260683
#	276786
#	297264
#	323712
#	345302
#
# Disc length: 4777 seconds
#
# Revision: 0
# Processed by: cddbd v1.5.2PL0 Copyright (c) Steve Scherf et al.
# Submitted via: CDex 1.70beta1
#
DISCID=d112a70e
DTITLE=Various Artist - Les Trésors du Jazz
DYEAR=1956
DGENRE=Jazz
TTITLE0=John Lewis - Warmeland
TTITLE1=Dave Brubeck Quartet - Pilgrim's Progress
TTITLE2=Donald Byrd - The Third
TTITLE3=Jimmy Smith - The Preacher
TTITLE4=Duke Ellington and his Orchestra - Suburban Beauty
TTITLE5=Duke Ellington and his Orchestra - Half the fun
TTITLE6=Oscar Peterson Trio - How High the Moon
TTITLE7=Nat King Cole - It's only a paper moon
TTITLE8=Oscar Peterson Trio - How about you
TTITLE9=Art Tatum - Humoresque
TTITLE10=Ella Fitzgerald and Louis Armstrong - A foggy day
TTITLE11=Ella Fitzgerald and Louis Armstrong - Cheek to cheek
TTITLE12=Modern Jazz Quartet - A fugue for music inn
TTITLE13=Modern Jazz Quartet - A morning in Paris
EXTD=YEAR: 1956
EXTT0=
EXTT1=
EXTT2=
EXTT3=
EXTT4=
EXTT5=
EXTT6=
EXTT7=
EXTT8=
EXTT9=
EXTT10=
EXTT11=
EXTT12=
EXTT13=
PLAYORDER=
